<svg id="Слой_1" data-name="Слой 1" xmlns="http://www.w3.org/2000/svg" viewBox="0 0 150 190"><defs><style>.cls-1{fill-rule:evenodd;}</style></defs><title>Монтажная область 24</title><path class="cls-1" d="M101.87,122.25c-1,7.81-9.24,13.34-19.19,11.71-7.31-1.2-26.16-3.54-39.43-5.32l2.85-6,4.81.65,2.1-4.26c-5.1-.67-9.57-1.28-12-1.67-7-1.14-9.06-5.93-8.19-11.57,2.78-17.85,4.76-35.36,5.45-39,1.18-6.35,4.23-9,9.74-8.07,3.23.53,21.06,2.52,32.79,4l2.1-4.24-5.88-.73,2.65-5.56,6,.76h0c4.77.6,8.59,1.08,10.47,1.33,8.85,1.15,13.75,9.27,12.15,19.6C107.61,78.28,103.48,109.46,101.87,122.25ZM82.4,82.91l-2.69,2.51,2.66,7.15-6.59,2.08-2-6-3.48.79,1.83,6.6,4.07,2.55-8.53,4-7.48,6.86-6.39-.86-.08-6.36,3-8.77L49.93,90l.22-11.22,8.38-2.73,9,6.32L72.7,80l.44-3.73-15.43-4-.18-6.09L45.2,64.61l-6.1,46,47,6.25L89.4,91.42Zm10-23.32-2.23-.27L88,63.61c1,.15,1.89.28,2.46.38,6.48,1.21,8,5.86,7,11.76-.54,3.27-3,23.27-5.2,40.3-.74,5.74-5.42,7.77-12.73,6.57-3.85-.64-12.42-1.74-20.67-2.81l-2.22,4.27c9.84,1.32,20,2.66,27.08,3.53s11.54-2.17,12.68-9.31c.66-4.11,5.15-37.31,5.95-44.66C103.29,65.36,99.54,60.45,92.43,59.59Zm-32.54,81.3h7.93l.32-4.45,9,.68v3.77h7.8c5.43,0,5.47,6.65,5.47,6.65H54.61S53.84,140.89,59.89,140.89Z"/></svg>